<svg xmlns="http://www.w3.org/2000/svg" width="51" height="51" viewBox="0 0 51 51">
    <g fill="#000" fill-rule="evenodd">
        <path d="M25.5 8.462c-7.723 0-13.301 5.756-14.186 11.938-.552 4.122.78 8.14 3.549 11.178 2.435 2.602 3.767 6.079 3.767 9.66l-.01 5.64c0 2.28 1.884 4.122 4.216 4.122h5.433c2.33 0 4.215-1.842 4.215-4.122l.01-5.64c0-3.685 1.218-7.058 3.55-9.441 2.55-2.602 3.882-5.964 3.882-9.44-.01-7.713-6.557-13.895-14.426-13.895zm4.871 38.416c0 1.083-.885 1.957-1.999 1.957H22.94c-1.114 0-1.999-.864-1.999-1.957v-2.497h9.42v2.497h.01zm4.122-16.6c-2.769 2.82-4.216 6.723-4.216 10.96v.978h-9.419v-.979c0-4.018-1.665-8.024-4.434-11.063-2.435-2.603-3.435-5.965-2.998-9.441.781-5.204 5.62-10.096 12.084-10.096 6.765 0 12.199 5.319 12.199 11.72a11.34 11.34 0 0 1-3.216 7.92zM24.386 5.204h2.217V0h-2.217zM38.937 10.034l1.55 1.55 3.8-3.653-1.562-1.55zM45.567 25.614H51V23.44h-5.433zM.008 25.614h5.425V23.44H.008zM8.233 6.37L6.672 7.92l3.799 3.654 1.55-1.551z"/>
    </g>
</svg>
