<svg xmlns="http://www.w3.org/2000/svg" width="20" height="20" viewBox="0 0 20 20">
    <g fill="#000" fill-rule="evenodd">
        <path fill-rule="nonzero" d="M9.99 0C4.47 0 0 4.48 0 10s4.47 10 9.99 10C15.52 20 20 15.52 20 10S15.52 0 9.99 0zM10 18c-4.42 0-8-3.58-8-8s3.58-8 8-8 8 3.58 8 8-3.58 8-8 8z"/>
        <path d="M12.868 14.242l-.066.032c-.23.133-.56.298-1.153.298-.297 0-.562-.066-.792-.131a3.34 3.34 0 0 0-1.186-.199c-.924 0-1.45.032-1.847.297-.034.033-.066.033-.1.033-.064 0-.098-.033-.13-.066l-.562-.824C7 13.648 7 13.616 7 13.582c0-.066.032-.098.066-.132.79-.526 1.582-1.154 1.582-1.846 0-.132-.033-.296-.065-.527 0-.066-.099-.132-.164-.132H7.362c-.198 0-.33-.131-.33-.33v-.66c0-.198.132-.328.33-.328h.693c.1 0 .197-.1.165-.198-.034-.1-.066-.232-.1-.364a3.19 3.19 0 0 1-.098-.758A2.293 2.293 0 0 1 10.33 6c1.154 0 2.078.824 2.277 1.913v.066c0 .196-.132.328-.33.328h-.66c-.133 0-.297-.132-.33-.264-.133-.428-.495-.725-.957-.725a.97.97 0 0 0-.988.989c0 .132.032.298.032.364.066.23.166.526.232.824.032.066.098.132.164.132h2.209c.198 0 .33.13.33.328v.66c0 .199-.132.33-.33.33h-1.845c-.1 0-.166.098-.166.199.034.164.034.328.034.46 0 .396-.1.758-.264 1.088-.066.132 0 .232.132.232.626.032 1.054.13 1.35.23.198.066.33.098.43.098.263 0 .362-.066.527-.132l.1-.066c.065-.032.164 0 .23.066l.462.89c0 .035.032.067.032.067-.032.1-.066.165-.132.165z"/>
    </g>
</svg>
