<svg xmlns="http://www.w3.org/2000/svg" width="18" height="18" viewBox="0 0 18 18">
    <g fill="none" fill-rule="evenodd">
        <path stroke="#000" d="M8.893 1a8 8 0 1 0 .214 16 8 8 0 0 0-.214-16z"/>
        <path fill="#000" d="M9.376 13h-.035c-.537-.017-.915-.429-.9-.98.015-.54.403-.933.922-.933h.031c.552.017.926.425.91.992-.015.542-.397.921-.928.921zm2.258-4.665c-.126.186-.404.418-.754.702l-.385.276c-.211.172-.339.333-.387.492-.037.124-.056.157-.06.41v.065h-1.47l.003-.13c.018-.532.031-.845.243-1.104.333-.406 1.067-.899 1.098-.92.105-.082.194-.175.26-.276.154-.222.223-.396.223-.567a1.14 1.14 0 0 0-.203-.654c-.128-.19-.373-.285-.728-.285-.35 0-.591.116-.735.355a1.462 1.462 0 0 0-.223.763v.066H7l.003-.068c.04-.967.37-1.663.985-2.07.386-.259.866-.39 1.427-.39.733 0 1.353.186 1.84.552.494.37.745.926.745 1.65 0 .406-.123.787-.366 1.133z"/>
    </g>
</svg>
